<svg class="icon" width="200" height="200" viewBox="0 0 1024 1024" xmlns="http://www.w3.org/2000/svg"><path d="M807.57 444.928c11.191 60.855 4.681 73.874 0 107.52-104.009 411.575-231.643 416.037-349.257 388.9-54.71-16.969-63.268-36.132-76.8-58.733-9.143-13.605-9.143-27.136-13.604-40.74 0-22.529 0-45.203 8.996-63.27 4.535-13.604 18.14-36.205 18.14-40.74a120.686 120.686 0 0 0 13.531-54.272c0-27.063-13.531-58.734-31.598-81.408-22.674-31.598-49.737-72.411-63.341-122.075-13.605-31.598-13.605-63.269-9.07-94.867 13.604-49.737 49.737-95.085 104.009-113.152 67.584-21.65 92.526-18.87 121.198-18.87 28.672 0 85.577 8.411 125.952 18.87 40.228 10.533 56.466 24.284 83.602 47.909 37.303 37.303 48.055 56.1 68.242 124.928zM254.171 288.841a107.886 107.886 0 1 1 0-215.698 107.886 107.886 0 0 1 0 215.771zm251.612-71.9a71.9 71.9 0 1 1 0-143.798 71.9 71.9 0 0 1 0 143.799zm179.785 23.992a59.977 59.977 0 1 1 0-119.882 59.977 59.977 0 0 1 0 119.882zm155.794 71.899a47.909 47.909 0 1 1 0-95.817 47.909 47.909 0 0 1 0 95.817z"/></svg>