<svg class="icon" width="200" height="200" viewBox="0 0 1024 1024" xmlns="http://www.w3.org/2000/svg"><path d="M305.351 533.902a227.556 227.556 0 1 1 242.631 0c144.868 54.102 248.462 202.44 248.462 376.32A28.444 28.444 0 0 1 768 938.667H85.333a28.444 28.444 0 0 1-28.444-28.445c0-173.88 103.595-322.218 248.462-376.32zm547.755 347.876c-4.694-153.316-85.248-287.29-204.516-362.468a283.25 283.25 0 0 0 62.521-177.977 283.506 283.506 0 0 0-80.014-197.774 199.111 199.111 0 0 1 128.74 366.62C880.696 565.76 967.11 701.725 967.11 853.334a28.444 28.444 0 0 1-28.444 28.445h-85.561z"/></svg>